<svg width="16" height="16" viewBox="0 0 16 16" fill="none" xmlns="http://www.w3.org/2000/svg">
<path d="M5.15674 13.069L9.76774 8.384C9.86886 8.28178 9.92559 8.14379 9.92559 8C9.92559 7.85621 9.86886 7.71822 9.76774 7.616L5.15774 2.93C5.05666 2.82715 5.00002 2.68871 5.00002 2.5445C5.00002 2.40029 5.05666 2.26186 5.15774 2.159C5.20711 2.10835 5.26613 2.0681 5.33131 2.04062C5.39648 2.01313 5.4665 1.99897 5.53724 1.99897C5.60797 1.99897 5.67799 2.01313 5.74317 2.04062C5.80834 2.0681 5.86736 2.10835 5.91674 2.159L10.5267 6.843C10.8297 7.15152 10.9994 7.56662 10.9994 7.999C10.9994 8.43138 10.8297 8.84648 10.5267 9.155L5.91674 13.839C5.86734 13.8898 5.80827 13.9302 5.743 13.9578C5.67773 13.9853 5.60759 13.9995 5.53674 13.9995C5.46588 13.9995 5.39574 13.9853 5.33048 13.9578C5.26521 13.9302 5.20613 13.8898 5.15674 13.839C5.05566 13.7361 4.99902 13.5977 4.99902 13.4535C4.99902 13.3093 5.05566 13.1709 5.15674 13.068" fill="#206EF0"/>
</svg>
