<svg width="20" height="21" viewBox="0 0 20 21" fill="none" xmlns="http://www.w3.org/2000/svg">
<path d="M15.0003 11.3317H10.8337V15.4983C10.8337 15.7194 10.7459 15.9313 10.5896 16.0876C10.4333 16.2439 10.2213 16.3317 10.0003 16.3317C9.77931 16.3317 9.56735 16.2439 9.41107 16.0876C9.25479 15.9313 9.16699 15.7194 9.16699 15.4983V11.3317H5.00033C4.77931 11.3317 4.56735 11.2439 4.41107 11.0876C4.25479 10.9313 4.16699 10.7194 4.16699 10.4983C4.16699 10.2773 4.25479 10.0654 4.41107 9.90909C4.56735 9.75281 4.77931 9.66501 5.00033 9.66501H9.16699V5.49834C9.16699 5.27733 9.25479 5.06537 9.41107 4.90909C9.56735 4.75281 9.77931 4.66501 10.0003 4.66501C10.2213 4.66501 10.4333 4.75281 10.5896 4.90909C10.7459 5.06537 10.8337 5.27733 10.8337 5.49834V9.66501H15.0003C15.2213 9.66501 15.4333 9.75281 15.5896 9.90909C15.7459 10.0654 15.8337 10.2773 15.8337 10.4983C15.8337 10.7194 15.7459 10.9313 15.5896 11.0876C15.4333 11.2439 15.2213 11.3317 15.0003 11.3317Z" fill="white"/>
</svg>
