<svg width="24" height="24" viewBox="0 0 24 24" fill="none" xmlns="http://www.w3.org/2000/svg">
<path d="M2 6.625C2 5.7962 2.32924 5.00134 2.91529 4.41529C3.50134 3.82924 4.2962 3.5 5.125 3.5H18.875C19.7038 3.5 20.4987 3.82924 21.0847 4.41529C21.6708 5.00134 22 5.7962 22 6.625V14.257C21.62 13.9432 21.1996 13.6818 20.75 13.48V6.625C20.75 6.12772 20.5525 5.65081 20.2008 5.29917C19.8492 4.94754 19.3723 4.75 18.875 4.75H5.125C4.62772 4.75 4.15081 4.94754 3.79917 5.29917C3.44754 5.65081 3.25 6.12772 3.25 6.625V14.375C3.25 14.8723 3.44754 15.3492 3.79917 15.7008C4.15081 16.0525 4.62772 16.25 5.125 16.25H11.952L13.202 17.5H5.125C4.2962 17.5 3.50134 17.1708 2.91529 16.5847C2.32924 15.9987 2 15.2038 2 14.375V6.625ZM16.625 12.5C16.4745 12.5 16.336 12.4465 16.228 12.3575C16.1939 12.1498 16.1191 11.9508 16.008 11.772C16.0324 11.626 16.1078 11.4934 16.2208 11.3979C16.3338 11.3023 16.477 11.2499 16.625 11.25H18.875C19.0408 11.25 19.1997 11.3158 19.3169 11.4331C19.4342 11.5503 19.5 11.7092 19.5 11.875C19.5 12.0408 19.4342 12.1997 19.3169 12.3169C19.1997 12.4342 19.0408 12.5 18.875 12.5H16.625ZM13.384 10.5L14.006 11.122C13.8074 11.2033 13.6271 11.3237 13.476 11.476L13.034 11.918L12.5 11.384L11.567 12.317C11.509 12.375 11.44 12.4211 11.3642 12.4525C11.2884 12.4839 11.2071 12.5001 11.125 12.5001C11.0429 12.5001 10.9616 12.4839 10.8858 12.4525C10.81 12.4211 10.741 12.375 10.683 12.317C10.625 12.259 10.5789 12.19 10.5475 12.1142C10.5161 12.0384 10.4999 11.9571 10.4999 11.875C10.4999 11.7929 10.5161 11.7116 10.5475 11.6358C10.5789 11.56 10.625 11.491 10.683 11.433L11.616 10.5L10.683 9.567C10.5658 9.44977 10.4999 9.29078 10.4999 9.125C10.4999 8.95922 10.5658 8.80023 10.683 8.683C10.8002 8.56577 10.9592 8.49992 11.125 8.49992C11.2908 8.49992 11.4498 8.56577 11.567 8.683L12.5 9.616L13.433 8.683C13.5502 8.56577 13.7092 8.49992 13.875 8.49992C14.0408 8.49992 14.1998 8.56577 14.317 8.683C14.4342 8.80023 14.5001 8.95922 14.5001 9.125C14.5001 9.29078 14.4342 9.44977 14.317 9.567L13.384 10.5ZM5.183 8.683C5.24104 8.62495 5.30995 8.57889 5.38578 8.54747C5.46162 8.51606 5.54291 8.49988 5.625 8.49988C5.70709 8.49988 5.78838 8.51606 5.86422 8.54747C5.94005 8.57889 6.00896 8.62495 6.067 8.683L7 9.616L7.933 8.683C8.05023 8.56577 8.20922 8.49992 8.375 8.49992C8.54078 8.49992 8.69977 8.56577 8.817 8.683C8.93423 8.80023 9.00008 8.95922 9.00008 9.125C9.00008 9.29078 8.93423 9.44977 8.817 9.567L7.884 10.5L8.817 11.433C8.87504 11.491 8.92109 11.56 8.9525 11.6358C8.98391 11.7116 9.00008 11.7929 9.00008 11.875C9.00008 11.9571 8.98391 12.0384 8.9525 12.1142C8.92109 12.19 8.87504 12.259 8.817 12.317C8.75896 12.375 8.69005 12.4211 8.61421 12.4525C8.53837 12.4839 8.45709 12.5001 8.375 12.5001C8.29291 12.5001 8.21163 12.4839 8.13579 12.4525C8.05995 12.4211 7.99104 12.375 7.933 12.317L7 11.384L6.067 12.317C5.94977 12.4342 5.79078 12.5001 5.625 12.5001C5.45922 12.5001 5.30023 12.4342 5.183 12.317C5.06577 12.1998 4.99992 12.0408 4.99992 11.875C4.99992 11.7092 5.06577 11.5502 5.183 11.433L6.116 10.5L5.183 9.567C5.12495 9.50896 5.07889 9.44005 5.04747 9.36421C5.01605 9.28838 4.99988 9.20709 4.99988 9.125C4.99988 9.04291 5.01605 8.96162 5.04747 8.88579C5.07889 8.80995 5.12495 8.74104 5.183 8.683ZM15.067 13.067C15.1842 12.9498 15.2501 12.7908 15.2501 12.625C15.2501 12.4592 15.1842 12.3002 15.067 12.183C14.9498 12.0658 14.7908 11.9999 14.625 11.9999C14.4592 11.9999 14.3002 12.0658 14.183 12.183L12.183 14.183C12.1249 14.241 12.0789 14.3099 12.0475 14.3858C12.0161 14.4616 11.9999 14.5429 11.9999 14.625C11.9999 14.7071 12.0161 14.7884 12.0475 14.8642C12.0789 14.9401 12.1249 15.009 12.183 15.067L14.183 17.067C14.3002 17.1842 14.4592 17.2501 14.625 17.2501C14.7908 17.2501 14.9498 17.1842 15.067 17.067C15.1842 16.9498 15.2501 16.7908 15.2501 16.625C15.2501 16.4592 15.1842 16.3002 15.067 16.183L14.134 15.25H18.5C19.1203 15.2501 19.7276 15.4277 20.2502 15.7618C20.7728 16.0959 21.1888 16.5725 21.4492 17.1355C21.7097 17.6984 21.8036 18.3242 21.7198 18.9387C21.6361 19.5533 21.3782 20.1311 20.9767 20.6039C20.5752 21.0767 20.0467 21.4246 19.4538 21.6068C18.8609 21.7889 18.2282 21.7975 17.6305 21.6317C17.0328 21.4658 16.4951 21.1324 16.0808 20.6707C15.6665 20.2091 15.393 19.6386 15.2925 19.0265C15.2793 18.9455 15.2503 18.8678 15.2071 18.798C15.1639 18.7282 15.1073 18.6676 15.0407 18.6197C14.9741 18.5717 14.8987 18.5373 14.8188 18.5185C14.7389 18.4997 14.656 18.4968 14.575 18.51C14.494 18.5232 14.4163 18.5522 14.3465 18.5954C14.2767 18.6386 14.2161 18.6952 14.1682 18.7618C14.1202 18.8284 14.0858 18.9038 14.067 18.9837C14.0482 19.0636 14.0453 19.1465 14.0585 19.2275C14.4065 21.367 16.262 23 18.5 23C19.6935 23 20.8381 22.5259 21.682 21.682C22.5259 20.8381 23 19.6935 23 18.5C23 17.3065 22.5259 16.1619 21.682 15.318C20.8381 14.4741 19.6935 14 18.5 14H14.134L15.067 13.067Z" fill="#F4A700"/>
</svg>
