<svg width="24" height="24" viewBox="0 0 24 24" fill="none" xmlns="http://www.w3.org/2000/svg">
<path d="M14.4375 7.50001C14.4375 7.35082 14.4968 7.20775 14.6023 7.10226C14.7078 6.99677 14.8509 6.93751 15 6.93751H23.25C23.3992 6.93751 23.5423 6.99677 23.6478 7.10226C23.7533 7.20775 23.8125 7.35082 23.8125 7.50001C23.8125 7.64919 23.7533 7.79227 23.6478 7.89775C23.5423 8.00324 23.3992 8.06251 23.25 8.06251H15C14.8509 8.06251 14.7078 8.00324 14.6023 7.89775C14.4968 7.79227 14.4375 7.64919 14.4375 7.50001ZM23.25 11.4375H15C14.8509 11.4375 14.7078 11.4968 14.6023 11.6023C14.4968 11.7077 14.4375 11.8508 14.4375 12C14.4375 12.1492 14.4968 12.2923 14.6023 12.3978C14.7078 12.5032 14.8509 12.5625 15 12.5625H23.25C23.3992 12.5625 23.5423 12.5032 23.6478 12.3978C23.7533 12.2923 23.8125 12.1492 23.8125 12C23.8125 11.8508 23.7533 11.7077 23.6478 11.6023C23.5423 11.4968 23.3992 11.4375 23.25 11.4375ZM23.25 15.9375H17.25C17.1009 15.9375 16.9578 15.9968 16.8523 16.1023C16.7468 16.2077 16.6875 16.3508 16.6875 16.5C16.6875 16.6492 16.7468 16.7923 16.8523 16.8978C16.9578 17.0032 17.1009 17.0625 17.25 17.0625H23.25C23.3992 17.0625 23.5423 17.0032 23.6478 16.8978C23.7533 16.7923 23.8125 16.6492 23.8125 16.5C23.8125 16.3508 23.7533 16.2077 23.6478 16.1023C23.5423 15.9968 23.3992 15.9375 23.25 15.9375ZM14.0447 17.8594C14.0632 17.9309 14.0674 18.0054 14.0571 18.0785C14.0468 18.1517 14.0222 18.2221 13.9846 18.2857C13.9471 18.3494 13.8974 18.405 13.8384 18.4494C13.7794 18.4939 13.7122 18.5262 13.6407 18.5447C13.5691 18.5632 13.4947 18.5674 13.4215 18.557C13.3484 18.5467 13.278 18.5221 13.2143 18.4846C13.1507 18.4471 13.0951 18.3974 13.0506 18.3384C13.0062 18.2794 12.9738 18.2122 12.9554 18.1406C12.3469 15.7772 10.0529 14.0625 7.50005 14.0625C4.94724 14.0625 2.65317 15.7772 2.04474 18.1397C2.02627 18.2112 1.99389 18.2784 1.94946 18.3374C1.90502 18.3965 1.8494 18.4461 1.78576 18.4837C1.72213 18.5212 1.65172 18.5458 1.57857 18.5561C1.50542 18.5664 1.43095 18.5622 1.35942 18.5438C1.28789 18.5253 1.2207 18.4929 1.16168 18.4485C1.10267 18.404 1.05298 18.3484 1.01546 18.2848C0.977938 18.2211 0.953319 18.1507 0.943007 18.0776C0.932696 18.0044 0.936893 17.93 0.95536 17.8584C1.49349 15.7697 3.11161 14.1019 5.14317 13.3584C4.36503 12.8506 3.77172 12.1051 3.45159 11.2328C3.13145 10.3605 3.10161 9.40812 3.36652 8.5175C3.63142 7.62688 4.17689 6.84564 4.92171 6.29011C5.66654 5.73457 6.57087 5.43446 7.50005 5.43446C8.42923 5.43446 9.33356 5.73457 10.0784 6.29011C10.8232 6.84564 11.3687 7.62688 11.6336 8.5175C11.8985 9.40812 11.8686 10.3605 11.5485 11.2328C11.2284 12.1051 10.6351 12.8506 9.85692 13.3584C11.8866 14.1028 13.5075 15.7706 14.0447 17.8594ZM7.50005 12.9375C8.13048 12.9375 8.74675 12.7506 9.27093 12.4003C9.79511 12.0501 10.2037 11.5523 10.4449 10.9698C10.6862 10.3874 10.7493 9.74647 10.6263 9.12816C10.5033 8.50984 10.1997 7.94188 9.75395 7.4961C9.30817 7.05032 8.74021 6.74674 8.1219 6.62375C7.50358 6.50076 6.86268 6.56389 6.28024 6.80514C5.6978 7.0464 5.19999 7.45495 4.84974 7.97913C4.49949 8.50331 4.31255 9.11958 4.31255 9.75001C4.31255 10.5954 4.64837 11.4061 5.24614 12.0039C5.84392 12.6017 6.65467 12.9375 7.50005 12.9375Z" fill="#EFEFEF"/>
</svg>
